<?xml version="1.0" encoding="utf-8"?>
<!-- Generator: Adobe Illustrator 22.0.1, SVG Export Plug-In . SVG Version: 6.00 Build 0)  -->
<svg version="1.1" id="Layer_1" xmlns="http://www.w3.org/2000/svg" xmlns:xlink="http://www.w3.org/1999/xlink" x="0px" y="0px"
	 viewBox="0 0 326.8 100.1" style="enable-background:new 0 0 326.8 100.1;" xml:space="preserve">
<style type="text/css">
	.st0{fill:#362A50;}
	.st1{fill:#FFBD3B;}
</style>
<rect class="st0" width="326.8" height="100.4"/>
<g>
	<path class="st1" d="M93.3,63.9c-1,0-2.1-0.1-3.1-0.4c-1-0.3-2-0.7-2.9-1.4s-1.7-1.4-2.4-2.4c-0.7-1-1.3-2.1-1.6-3.4l4.5-1.9
		c0.4,1.6,1.1,2.7,2.1,3.6c1,0.8,2.2,1.3,3.5,1.3c0.7,0,1.4-0.1,2-0.3c0.6-0.2,1.2-0.6,1.7-1c0.5-0.4,0.9-0.9,1.2-1.5
		c0.3-0.6,0.4-1.2,0.4-1.9c0-0.7-0.2-1.3-0.5-1.9c-0.3-0.6-0.7-1.1-1.2-1.5c-0.5-0.4-1.1-0.7-1.8-0.9c-0.7-0.2-1.5-0.3-2.3-0.3h-2.5
		v-4.4h2.3c0.7,0,1.3-0.1,1.9-0.3c0.6-0.2,1.1-0.5,1.6-0.8c0.5-0.3,0.8-0.8,1.1-1.3c0.3-0.5,0.4-1.1,0.4-1.8c0-1.2-0.4-2.1-1.3-2.8
		c-0.8-0.7-1.9-1-3.2-1c-0.7,0-1.3,0.1-1.9,0.3c-0.5,0.2-1,0.5-1.4,0.8c-0.4,0.3-0.7,0.7-0.9,1.1c-0.2,0.4-0.4,0.8-0.6,1.3l-4.4-1.9
		c0.2-0.7,0.6-1.4,1.1-2.1c0.5-0.7,1.1-1.4,1.9-2c0.7-0.6,1.6-1.1,2.7-1.5c1-0.4,2.2-0.6,3.6-0.6c1.4,0,2.6,0.2,3.8,0.6
		c1.2,0.4,2.1,1,3,1.7c0.8,0.7,1.5,1.6,1.9,2.5c0.5,1,0.7,2,0.7,3.2c0,0.8-0.1,1.6-0.3,2.3s-0.5,1.3-0.9,1.8c-0.4,0.5-0.8,1-1.3,1.4
		c-0.5,0.4-0.9,0.7-1.4,1v0.3c0.7,0.3,1.3,0.7,1.9,1.1c0.6,0.4,1.1,1,1.6,1.6c0.4,0.6,0.8,1.3,1.1,2.1c0.3,0.8,0.4,1.6,0.4,2.5
		c0,1.3-0.3,2.5-0.8,3.6c-0.5,1.1-1.2,2.1-2.1,2.8c-0.9,0.8-2,1.4-3.2,1.9C96.1,63.7,94.8,63.9,93.3,63.9z"/>
	<path class="st1" d="M107.1,63.2v-4.5c1.7-1.6,3.2-3.2,4.6-4.6c0.6-0.6,1.2-1.2,1.8-1.9c0.6-0.6,1.2-1.2,1.7-1.8
		c0.5-0.6,1.1-1.1,1.5-1.6c0.5-0.5,0.8-0.9,1.1-1.1c0.5-0.6,1-1.2,1.4-1.7c0.4-0.5,0.7-1,1-1.4c0.3-0.5,0.5-0.9,0.6-1.4
		c0.1-0.5,0.2-1,0.2-1.6c0-0.5-0.1-1-0.3-1.5c-0.2-0.5-0.5-0.9-0.9-1.3c-0.4-0.4-0.9-0.7-1.5-0.9c-0.6-0.2-1.3-0.4-2.1-0.4
		c-0.7,0-1.4,0.1-2,0.4c-0.6,0.2-1,0.6-1.4,0.9c-0.4,0.4-0.7,0.8-1,1.3c-0.3,0.4-0.4,0.9-0.6,1.3l-4.4-1.8c0.2-0.7,0.5-1.4,1-2.2
		c0.5-0.8,1.1-1.5,1.9-2.2c0.8-0.7,1.7-1.2,2.8-1.6s2.3-0.6,3.7-0.6c1.5,0,2.8,0.2,4,0.7c1.2,0.5,2.2,1.1,3,1.9
		c0.8,0.8,1.5,1.7,1.9,2.7c0.4,1,0.7,2.1,0.7,3.3c0,0.9-0.1,1.8-0.4,2.7c-0.3,0.9-0.6,1.7-1.1,2.5c-0.4,0.8-0.9,1.5-1.5,2.2
		c-0.6,0.7-1.1,1.3-1.7,1.9c-0.1,0.1-0.4,0.4-0.6,0.6c-0.3,0.3-0.6,0.6-1,1c-0.4,0.4-0.8,0.8-1.3,1.2c-0.5,0.5-0.9,0.9-1.4,1.4
		l-3.5,3.5l0,0.2h12.8v4.4H107.1z"/>
	<path class="st1" d="M141.5,44.4c1.1,0,2.2,0.2,3.3,0.7c1.1,0.5,2,1.1,2.9,2c0.8,0.8,1.5,1.8,2.1,3c0.5,1.2,0.8,2.5,0.8,3.8
		c0,1.4-0.3,2.7-0.8,3.9c-0.6,1.2-1.3,2.3-2.2,3.2c-0.9,0.9-2,1.6-3.3,2.1c-1.2,0.5-2.5,0.8-3.9,0.8c-1.6,0-3-0.3-4.3-0.8
		c-1.3-0.6-2.4-1.3-3.3-2.2c-0.9-0.9-1.6-2-2.1-3.2c-0.5-1.2-0.7-2.5-0.7-3.8c0-1.9,0.4-3.6,1.1-5.1c0.8-1.6,1.7-3.2,2.8-4.8
		l7.4-10.9l3.8,2.6l-6.7,9.3l0.2,0.1c0.4-0.2,0.8-0.4,1.3-0.5C140.3,44.4,140.9,44.4,141.5,44.4z M140.2,59.4c0.7,0,1.5-0.1,2.1-0.4
		c0.7-0.3,1.3-0.7,1.8-1.1c0.5-0.5,0.9-1.1,1.2-1.7c0.3-0.7,0.5-1.4,0.5-2.2c0-0.8-0.2-1.5-0.5-2.2c-0.3-0.7-0.7-1.2-1.2-1.7
		c-0.5-0.5-1.1-0.8-1.8-1.1c-0.7-0.3-1.4-0.4-2.1-0.4c-0.7,0-1.5,0.1-2.1,0.4s-1.2,0.6-1.7,1.1c-0.5,0.5-0.9,1-1.2,1.7
		c-0.3,0.7-0.5,1.4-0.5,2.2c0,0.8,0.2,1.5,0.5,2.2c0.3,0.7,0.7,1.2,1.2,1.7c0.5,0.5,1.1,0.9,1.7,1.1
		C138.8,59.3,139.5,59.4,140.2,59.4z"/>
	<path class="st1" d="M155.2,35.8l4.7,1.7l0.3-0.1v-5h3.7v5l0.3,0.1l4.7-1.7l1.2,3.5l-4.7,1.6l-0.1,0.3l3.2,4.4l-3,2.2l-3.2-4.4
		h-0.3l-3.2,4.4l-3-2.2l3.2-4.4l-0.1-0.3l-4.7-1.6L155.2,35.8z"/>
	<path class="st1" d="M180.7,63.2V39.5l-5.5,2.4l-1.8-4.1l8.7-4.1h3.4v29.5H180.7z"/>
	<path class="st1" d="M203.2,63.9c-1.9,0-3.5-0.4-5-1.2c-1.5-0.8-2.8-1.9-3.8-3.3c-1.1-1.4-1.9-3-2.4-4.9c-0.6-1.9-0.8-3.9-0.8-6.1
		c0-2.2,0.3-4.2,0.8-6.1c0.6-1.9,1.4-3.5,2.4-4.9c1.1-1.4,2.3-2.5,3.8-3.3c1.5-0.8,3.2-1.2,5-1.2c1.8,0,3.5,0.4,5,1.2
		c1.5,0.8,2.8,1.9,3.8,3.3c1.1,1.4,1.9,3,2.4,4.9c0.6,1.9,0.9,3.9,0.9,6.1c0,2.2-0.3,4.2-0.9,6.1c-0.6,1.9-1.4,3.5-2.4,4.9
		c-1.1,1.4-2.3,2.5-3.8,3.3C206.7,63.5,205,63.9,203.2,63.9z M203.2,59.4c1.1,0,2.1-0.3,3-0.8c0.9-0.6,1.7-1.3,2.3-2.3
		c0.6-1,1.1-2.1,1.4-3.5c0.3-1.3,0.5-2.8,0.5-4.3c0-1.6-0.2-3-0.5-4.3c-0.3-1.3-0.8-2.5-1.4-3.5c-0.6-1-1.4-1.7-2.3-2.3
		c-0.9-0.6-1.9-0.8-3-0.8c-1.1,0-2.1,0.3-3,0.8c-0.9,0.6-1.7,1.3-2.3,2.3c-0.6,1-1.1,2.1-1.4,3.5c-0.3,1.3-0.5,2.8-0.5,4.3
		c0,1.5,0.2,3,0.5,4.3c0.3,1.3,0.8,2.5,1.4,3.5c0.6,1,1.4,1.7,2.3,2.3C201,59.1,202.1,59.4,203.2,59.4z"/>
	<path class="st1" d="M231.2,63.9c-1.9,0-3.5-0.4-5-1.2c-1.5-0.8-2.8-1.9-3.8-3.3c-1.1-1.4-1.9-3-2.4-4.9c-0.6-1.9-0.8-3.9-0.8-6.1
		c0-2.2,0.3-4.2,0.8-6.1c0.6-1.9,1.4-3.5,2.4-4.9c1.1-1.4,2.3-2.5,3.8-3.3c1.5-0.8,3.2-1.2,5-1.2c1.8,0,3.5,0.4,5,1.2
		c1.5,0.8,2.8,1.9,3.8,3.3c1.1,1.4,1.9,3,2.4,4.9c0.6,1.9,0.9,3.9,0.9,6.1c0,2.2-0.3,4.2-0.9,6.1c-0.6,1.9-1.4,3.5-2.4,4.9
		c-1.1,1.4-2.3,2.5-3.8,3.3C234.8,63.5,233.1,63.9,231.2,63.9z M231.2,59.4c1.1,0,2.1-0.3,3-0.8c0.9-0.6,1.7-1.3,2.3-2.3
		c0.6-1,1.1-2.1,1.4-3.5c0.3-1.3,0.5-2.8,0.5-4.3c0-1.6-0.2-3-0.5-4.3c-0.3-1.3-0.8-2.5-1.4-3.5c-0.6-1-1.4-1.7-2.3-2.3
		c-0.9-0.6-1.9-0.8-3-0.8c-1.1,0-2.1,0.3-3,0.8c-0.9,0.6-1.7,1.3-2.3,2.3c-0.6,1-1.1,2.1-1.4,3.5c-0.3,1.3-0.5,2.8-0.5,4.3
		c0,1.5,0.2,3,0.5,4.3c0.3,1.3,0.8,2.5,1.4,3.5c0.6,1,1.4,1.7,2.3,2.3C229.1,59.1,230.1,59.4,231.2,59.4z"/>
</g>
</svg>
