<?xml version="1.0" encoding="utf-8"?>
<!-- Generator: Adobe Illustrator 22.0.1, SVG Export Plug-In . SVG Version: 6.00 Build 0)  -->
<svg version="1.1" id="Layer_1" xmlns="http://www.w3.org/2000/svg" xmlns:xlink="http://www.w3.org/1999/xlink" x="0px" y="0px"
	 viewBox="0 0 326.8 100.1" style="enable-background:new 0 0 326.8 100.1;" xml:space="preserve">
<style type="text/css">
	.st0{fill:#FFBD3B;}
	.st1{enable-background:new    ;}
	.st2{fill:#FFFFFF;}
	.st3{fill:#362A50;}
</style>
<path class="st0" d="M34.6,52.5H23.2c-2.4,0-3.5-2.9-1.9-4.5l33.2-33.2c1.7-1.7,4.5-0.5,4.5,1.9v33.2c0,1.5,1.2,2.7,2.7,2.7h11.8
	c2.4,0,3.5,2.9,1.9,4.5L42.6,89.9c-1.6,1.6-4.5,0.5-4.5-1.8l-0.9-33C37.2,53.7,36,52.5,34.6,52.5z"/>
<g class="st1">
	<path class="st2" d="M122.3,59.8c0,4.2-1.5,7.5-4.6,10.1s-7,3.8-11.7,3.8c-3.2,0-6.5-0.6-9.9-1.7s-6.5-2.8-9.2-5l5.2-7.4
		c4.4,3.4,9.1,5.1,14.1,5.1c1.5,0,2.7-0.3,3.6-0.9s1.3-1.4,1.3-2.4s-0.6-1.9-1.9-2.8c-1.2-0.8-3-1.6-5.4-2.4
		c-2.3-0.7-4.1-1.4-5.4-1.9c-1.2-0.5-2.6-1.3-4.2-2.3c-3.2-2-4.8-5-4.8-8.9s1.6-7.1,4.7-9.6c3.2-2.5,7.2-3.7,12.2-3.7s10,1.7,15,5.1
		l-4.4,7.9c-3.7-2.5-7.4-3.8-11-3.8c-3.7,0-5.5,1-5.5,3c0,1.1,0.6,2,1.7,2.6c1.2,0.6,3.1,1.4,5.8,2.2c2.7,0.8,4.6,1.5,5.7,1.9
		s2.5,1.1,4.1,2.1C120.8,52.6,122.3,55.6,122.3,59.8z"/>
	<path class="st2" d="M153.2,29.8c4.9,0,9.4,2.1,13.2,6.2c3.9,4.1,5.8,9.3,5.8,15.6s-1.9,11.5-5.8,15.7c-3.9,4.2-8.4,6.3-13.6,6.3
		c-5.2,0-9.4-2.1-12.5-6.2v20.9h-11.9V30.5h11.9v4.7C143.9,31.6,148.2,29.8,153.2,29.8z M140.1,51.8c0,3.5,1,6.3,2.9,8.5
		s4.3,3.3,7,3.3s5.1-1.1,7.2-3.3c2.1-2.2,3.1-5,3.1-8.4c0-3.4-1-6.3-3-8.6s-4.4-3.5-7.2-3.5s-5.1,1.1-7.1,3.4
		C141.1,45.5,140.1,48.4,140.1,51.8z"/>
	<path class="st2" d="M182.1,67.6c-4.1-4.1-6.1-9.4-6.1-16s2.1-11.9,6.2-15.8c4.2-4,9-5.9,14.5-5.9c4.3,0,8,1.4,11.1,4.3v-3.6h11.9
		V73h-11.9v-3.5c-3.4,2.7-7.2,4.1-11.5,4.1C190.9,73.6,186.1,71.6,182.1,67.6z M187.9,51.8c0,3.5,1,6.3,3.1,8.5s4.5,3.3,7.2,3.3
		s5.1-1.1,7-3.3s2.8-5,2.8-8.5c0-3.4-0.9-6.3-2.8-8.6c-1.9-2.3-4.2-3.5-7-3.5s-5.2,1.1-7.2,3.4C188.9,45.5,187.9,48.4,187.9,51.8z"
		/>
	<path class="st2" d="M250.8,40.9c-3.5,0-6.2,1.3-7.9,3.8s-2.6,5.8-2.6,9.9V73h-11.9V30.5h11.9v5.6c1.5-1.7,3.4-3.2,5.7-4.4
		c2.3-1.2,4.6-1.8,7-1.9l0.1,11.1H250.8z"/>
	<path class="st2" d="M269.9,73H258V14.4h11.9v30.1l13.2-14.1H298l-16.2,17.2L298.6,73h-14.1l-10.8-16.3l-3.9,4L269.9,73L269.9,73z"
		/>
</g>
<rect y="-0.2" class="st3" width="326.8" height="100.4"/>
<g>
	<path class="st0" d="M93.3,63.7c-1,0-2.1-0.1-3.1-0.4c-1-0.3-2-0.7-2.9-1.4s-1.7-1.4-2.4-2.4c-0.7-1-1.3-2.1-1.6-3.4l4.5-1.9
		c0.4,1.6,1.1,2.7,2.1,3.6c1,0.8,2.2,1.3,3.5,1.3c0.7,0,1.4-0.1,2-0.3c0.6-0.2,1.2-0.6,1.7-1c0.5-0.4,0.9-0.9,1.2-1.5
		c0.3-0.6,0.4-1.2,0.4-1.9c0-0.7-0.2-1.3-0.5-1.9c-0.3-0.6-0.7-1.1-1.2-1.5c-0.5-0.4-1.1-0.7-1.8-0.9c-0.7-0.2-1.5-0.3-2.3-0.3h-2.5
		v-4.4h2.3c0.7,0,1.3-0.1,1.9-0.3c0.6-0.2,1.1-0.5,1.6-0.8c0.5-0.3,0.8-0.8,1.1-1.3c0.3-0.5,0.4-1.1,0.4-1.8c0-1.2-0.4-2.1-1.3-2.8
		c-0.8-0.7-1.9-1-3.2-1c-0.7,0-1.3,0.1-1.9,0.3c-0.5,0.2-1,0.5-1.4,0.8c-0.4,0.3-0.7,0.7-0.9,1.1c-0.2,0.4-0.4,0.8-0.6,1.3l-4.4-1.9
		c0.2-0.7,0.6-1.4,1.1-2.1c0.5-0.7,1.1-1.4,1.9-2c0.7-0.6,1.6-1.1,2.7-1.5c1-0.4,2.2-0.6,3.6-0.6c1.4,0,2.6,0.2,3.8,0.6
		c1.2,0.4,2.1,1,3,1.7c0.8,0.7,1.5,1.6,1.9,2.5c0.5,1,0.7,2,0.7,3.2c0,0.8-0.1,1.6-0.3,2.3s-0.5,1.3-0.9,1.8c-0.4,0.5-0.8,1-1.3,1.4
		c-0.5,0.4-0.9,0.7-1.4,1v0.3c0.7,0.3,1.3,0.7,1.9,1.1c0.6,0.4,1.1,1,1.6,1.6c0.4,0.6,0.8,1.3,1.1,2.1c0.3,0.8,0.4,1.6,0.4,2.5
		c0,1.3-0.3,2.5-0.8,3.6c-0.5,1.1-1.2,2.1-2.1,2.8c-0.9,0.8-2,1.4-3.2,1.9C96.1,63.5,94.8,63.7,93.3,63.7z"/>
	<path class="st0" d="M107.1,63.1v-4.5c1.7-1.6,3.2-3.2,4.6-4.6c0.6-0.6,1.2-1.2,1.8-1.9c0.6-0.6,1.2-1.2,1.7-1.8
		c0.5-0.6,1.1-1.1,1.5-1.6c0.5-0.5,0.8-0.9,1.1-1.1c0.5-0.6,1-1.2,1.4-1.7c0.4-0.5,0.7-1,1-1.4c0.3-0.5,0.5-0.9,0.6-1.4
		c0.1-0.5,0.2-1,0.2-1.6c0-0.5-0.1-1-0.3-1.5c-0.2-0.5-0.5-0.9-0.9-1.3c-0.4-0.4-0.9-0.7-1.5-0.9c-0.6-0.2-1.3-0.4-2.1-0.4
		c-0.7,0-1.4,0.1-2,0.4c-0.6,0.2-1,0.6-1.4,0.9c-0.4,0.4-0.7,0.8-1,1.3c-0.3,0.4-0.4,0.9-0.6,1.3l-4.4-1.8c0.2-0.7,0.5-1.4,1-2.2
		c0.5-0.8,1.1-1.5,1.9-2.2c0.8-0.7,1.7-1.2,2.8-1.6s2.3-0.6,3.7-0.6c1.5,0,2.8,0.2,4,0.7c1.2,0.5,2.2,1.1,3,1.9
		c0.8,0.8,1.5,1.7,1.9,2.7c0.4,1,0.7,2.1,0.7,3.3c0,0.9-0.1,1.8-0.4,2.7c-0.3,0.9-0.6,1.7-1.1,2.5c-0.4,0.8-0.9,1.5-1.5,2.2
		c-0.6,0.7-1.1,1.3-1.7,1.9c-0.1,0.1-0.4,0.4-0.6,0.6c-0.3,0.3-0.6,0.6-1,1c-0.4,0.4-0.8,0.8-1.3,1.2c-0.5,0.5-0.9,0.9-1.4,1.4
		l-3.5,3.5l0,0.2h12.8v4.4H107.1z"/>
	<path class="st0" d="M141.5,44.2c1.1,0,2.2,0.2,3.3,0.7c1.1,0.5,2,1.1,2.9,2c0.8,0.8,1.5,1.8,2.1,3c0.5,1.2,0.8,2.5,0.8,3.8
		c0,1.4-0.3,2.7-0.8,3.9c-0.6,1.2-1.3,2.3-2.2,3.2c-0.9,0.9-2,1.6-3.3,2.1c-1.2,0.5-2.5,0.8-3.9,0.8c-1.6,0-3-0.3-4.3-0.8
		c-1.3-0.6-2.4-1.3-3.3-2.2c-0.9-0.9-1.6-2-2.1-3.2c-0.5-1.2-0.7-2.5-0.7-3.8c0-1.9,0.4-3.6,1.1-5.1c0.8-1.6,1.7-3.2,2.8-4.8
		l7.4-10.9l3.8,2.6l-6.7,9.3l0.2,0.1c0.4-0.2,0.8-0.4,1.3-0.5C140.3,44.3,140.9,44.2,141.5,44.2z M140.2,59.3c0.7,0,1.5-0.1,2.1-0.4
		c0.7-0.3,1.3-0.7,1.8-1.1c0.5-0.5,0.9-1.1,1.2-1.7c0.3-0.7,0.5-1.4,0.5-2.2c0-0.8-0.2-1.5-0.5-2.2c-0.3-0.7-0.7-1.2-1.2-1.7
		c-0.5-0.5-1.1-0.8-1.8-1.1c-0.7-0.3-1.4-0.4-2.1-0.4c-0.7,0-1.5,0.1-2.1,0.4s-1.2,0.6-1.7,1.1c-0.5,0.5-0.9,1-1.2,1.7
		c-0.3,0.7-0.5,1.4-0.5,2.2c0,0.8,0.2,1.5,0.5,2.2c0.3,0.7,0.7,1.2,1.2,1.7c0.5,0.5,1.1,0.9,1.7,1.1
		C138.8,59.1,139.5,59.3,140.2,59.3z"/>
	<path class="st0" d="M155.2,35.6l4.7,1.7l0.3-0.1v-5h3.7v5l0.3,0.1l4.7-1.7l1.2,3.5l-4.7,1.6l-0.1,0.3l3.2,4.4l-3,2.2l-3.2-4.4
		h-0.3l-3.2,4.4l-3-2.2l3.2-4.4l-0.1-0.3l-4.7-1.6L155.2,35.6z"/>
	<path class="st0" d="M180.7,63.1V39.3l-5.5,2.4l-1.8-4.1l8.7-4.1h3.4v29.5H180.7z"/>
	<path class="st0" d="M203.2,63.7c-1.9,0-3.5-0.4-5-1.2c-1.5-0.8-2.8-1.9-3.8-3.3c-1.1-1.4-1.9-3-2.4-4.9c-0.6-1.9-0.8-3.9-0.8-6.1
		c0-2.2,0.3-4.2,0.8-6.1c0.6-1.9,1.4-3.5,2.4-4.9c1.1-1.4,2.3-2.5,3.8-3.3c1.5-0.8,3.2-1.2,5-1.2c1.8,0,3.5,0.4,5,1.2
		c1.5,0.8,2.8,1.9,3.8,3.3c1.1,1.4,1.9,3,2.4,4.9c0.6,1.9,0.9,3.9,0.9,6.1c0,2.2-0.3,4.2-0.9,6.1c-0.6,1.9-1.4,3.5-2.4,4.9
		c-1.1,1.4-2.3,2.5-3.8,3.3C206.7,63.4,205,63.7,203.2,63.7z M203.2,59.2c1.1,0,2.1-0.3,3-0.8c0.9-0.6,1.7-1.3,2.3-2.3
		c0.6-1,1.1-2.1,1.4-3.5c0.3-1.3,0.5-2.8,0.5-4.3c0-1.6-0.2-3-0.5-4.3c-0.3-1.3-0.8-2.5-1.4-3.5c-0.6-1-1.4-1.7-2.3-2.3
		c-0.9-0.6-1.9-0.8-3-0.8c-1.1,0-2.1,0.3-3,0.8c-0.9,0.6-1.7,1.3-2.3,2.3c-0.6,1-1.1,2.1-1.4,3.5c-0.3,1.3-0.5,2.8-0.5,4.3
		c0,1.5,0.2,3,0.5,4.3c0.3,1.3,0.8,2.5,1.4,3.5c0.6,1,1.4,1.7,2.3,2.3C201,58.9,202.1,59.2,203.2,59.2z"/>
	<path class="st0" d="M231.2,63.7c-1.9,0-3.5-0.4-5-1.2c-1.5-0.8-2.8-1.9-3.8-3.3c-1.1-1.4-1.9-3-2.4-4.9c-0.6-1.9-0.8-3.9-0.8-6.1
		c0-2.2,0.3-4.2,0.8-6.1c0.6-1.9,1.4-3.5,2.4-4.9c1.1-1.4,2.3-2.5,3.8-3.3c1.5-0.8,3.2-1.2,5-1.2c1.8,0,3.5,0.4,5,1.2
		c1.5,0.8,2.8,1.9,3.8,3.3c1.1,1.4,1.9,3,2.4,4.9c0.6,1.9,0.9,3.9,0.9,6.1c0,2.2-0.3,4.2-0.9,6.1c-0.6,1.9-1.4,3.5-2.4,4.9
		c-1.1,1.4-2.3,2.5-3.8,3.3C234.8,63.4,233.1,63.7,231.2,63.7z M231.2,59.2c1.1,0,2.1-0.3,3-0.8c0.9-0.6,1.7-1.3,2.3-2.3
		c0.6-1,1.1-2.1,1.4-3.5c0.3-1.3,0.5-2.8,0.5-4.3c0-1.6-0.2-3-0.5-4.3c-0.3-1.3-0.8-2.5-1.4-3.5c-0.6-1-1.4-1.7-2.3-2.3
		c-0.9-0.6-1.9-0.8-3-0.8c-1.1,0-2.1,0.3-3,0.8c-0.9,0.6-1.7,1.3-2.3,2.3c-0.6,1-1.1,2.1-1.4,3.5c-0.3,1.3-0.5,2.8-0.5,4.3
		c0,1.5,0.2,3,0.5,4.3c0.3,1.3,0.8,2.5,1.4,3.5c0.6,1,1.4,1.7,2.3,2.3C229.1,58.9,230.1,59.2,231.2,59.2z"/>
</g>
</svg>
